<?xml version="1.0" standalone="no"?>
<!DOCTYPE svg PUBLIC "-//W3C//DTD SVG 20010904//EN"
 "http://www.w3.org/TR/2001/REC-SVG-20010904/DTD/svg10.dtd">
<svg version="1.0" xmlns="http://www.w3.org/2000/svg"
 width="512.000000pt" height="512.000000pt" viewBox="0 0 512.000000 512.000000"
 preserveAspectRatio="xMidYMid meet">
<metadata>
Created by potrace 1.14, written by Peter Selinger 2001-2017
</metadata>
<g transform="translate(0.000000,512.000000) scale(0.100000,-0.100000)"
fill="#000000" stroke="none">
<path d="M1385 3993 c-474 -59 -864 -327 -1061 -731 -80 -163 -111 -255 -141
-422 -21 -115 -24 -449 -5 -550 45 -243 99 -393 203 -562 26 -43 52 -83 58
-90 194 -241 369 -366 634 -453 159 -51 259 -63 507 -60 118 2 226 5 240 8 14
2 45 8 70 11 76 11 231 54 314 86 137 53 329 160 425 235 181 144 305 271 486
496 251 314 406 484 533 586 26 21 49 40 52 43 33 36 204 125 293 154 38 12
55 17 122 33 78 18 305 23 396 10 193 -29 370 -112 493 -232 50 -49 89 -61
107 -34 24 36 -36 210 -113 331 -51 80 -149 179 -221 225 -96 61 -235 115
-327 129 -19 3 -46 7 -60 10 -35 7 -249 6 -307 -1 -359 -44 -651 -190 -918
-459 -75 -75 -155 -162 -255 -276 -16 -18 -165 -182 -190 -210 -8 -8 -55 -63
-105 -120 -335 -392 -625 -537 -1050 -525 -373 11 -616 174 -743 500 -60 153
-81 281 -77 465 3 127 9 168 40 287 103 392 399 631 766 618 226 -8 390 -95
531 -281 32 -42 128 -221 128 -238 0 -3 5 -17 10 -32 l11 -28 41 45 c22 24 81
89 132 143 50 55 96 104 101 110 6 6 41 44 79 84 l70 72 -24 43 c-106 188
-306 376 -495 462 -189 87 -326 116 -555 119 -91 2 -178 1 -195 -1z"/>
</g>
</svg>
